<?xml version="1.0" encoding="UTF-8"?><svg xmlns="http://www.w3.org/2000/svg" version="1.2" baseProfile="tiny-ps" viewBox="0.00 0.00 512.00 512.00"><title>bflogo</title><g stroke-width="2.00" fill="none" stroke-linecap="butt"><path stroke="#02bac3" vector-effect="non-scaling-stroke" d="   M 189.11 119.01   Q 162.28 105.25 136.28 89.59"></path><path stroke="#02b3ca" vector-effect="non-scaling-stroke" d="   M 188.52 131.46   Q 158.93 111.61 126.92 96.00"></path><path stroke="#03abd2" vector-effect="non-scaling-stroke" d="   M 184.37 141.78   Q 166.99 131.19 149.55 121.24   Q 134.87 112.87 121.45 102.50"></path><path stroke="#04a0de" vector-effect="non-scaling-stroke" d="   M 174.42 152.88   Q 145.16 135.63 115.42 119.89"></path><path stroke="#0595ea" vector-effect="non-scaling-stroke" d="   M 161.55 159.05   Q 140.08 144.05 116.51 133.09"></path><path stroke="#01c1bb" vector-effect="non-scaling-stroke" d="   M 244.11 162.58   Q 261.37 175.48 280.23 185.66   Q 314.41 204.12 347.55 224.39   Q 359.26 231.55 374.92 236.52"></path><path stroke="#02bac3" vector-effect="non-scaling-stroke" d="   M 374.97 288.00   Q 348.97 273.43 323.17 258.74   Q 309.78 251.12 299.54 239.48"></path><path stroke="#02bac3" vector-effect="non-scaling-stroke" d="   M 288.07 237.97   C 264.01 225.56 236.82 209.61 221.11 200.83   Q 210.40 194.85 197.82 190.41"></path><path stroke="#02b3ca" vector-effect="non-scaling-stroke" d="   M 374.98 315.27   C 351.03 300.09 323.90 284.87 299.52 271.77"></path><path stroke="#03abd2" vector-effect="non-scaling-stroke" d="   M 374.57 352.26   Q 363.11 348.15 355.22 343.99   Q 329.44 330.38 299.50 311.76"></path><path stroke="#04a4da" vector-effect="non-scaling-stroke" d="   M 361.09 389.64   Q 337.58 374.27 313.04 360.42   C 306.19 356.55 298.80 352.35 295.19 345.27"></path><path stroke="#059de1" vector-effect="non-scaling-stroke" d="   M 248.12 345.28   Q 255.65 355.24 267.22 362.11   Q 314.01 389.92 344.08 407.08"></path><path stroke="#0595ea" vector-effect="non-scaling-stroke" d="   M 292.99 422.19   Q 273.94 415.72 256.55 405.72   Q 199.26 372.76 141.73 340.20   Q 130.33 333.75 115.04 321.74"></path><path stroke="#059de1" vector-effect="non-scaling-stroke" d="   M 190.47 314.26   Q 174.37 308.90 161.49 301.98   Q 138.69 289.73 115.46 277.41"></path><path stroke="#04a4da" vector-effect="non-scaling-stroke" d="   M 190.45 288.28   Q 182.24 285.21 176.00 282.06   Q 151.87 269.87 126.64 254.47"></path></g><path fill="#01bdbf" d="   M 189.11 119.01   Q 162.28 105.25 136.28 89.59   Q 141.61 87.24 144.68 86.69   Q 156.55 84.58 167.63 89.06   A 1.94 1.91 -11.7 0 1 168.25 89.46   Q 169.51 90.64 170.78 90.88   Q 171.81 91.07 173.19 92.47   Q 174.40 93.71 177.28 95.48   A 5.13 5.03 -4.4 0 1 178.40 96.42   Q 183.36 102.07 186.59 108.26   A 4.44 4.22 -67.5 0 1 186.92 109.12   Q 187.43 111.07 188.24 113.31   Q 189.19 115.92 189.11 119.01   Z"></path><path fill="#02b6c6" d="   M 189.11 119.01   Q 189.56 124.77 188.73 130.65   Q 188.66 131.12 188.52 131.46   Q 158.93 111.61 126.92 96.00   Q 131.03 92.14 136.28 89.59   Q 162.28 105.25 189.11 119.01   Z"></path><path fill="#02afcd" d="   M 126.92 96.00   Q 158.93 111.61 188.52 131.46   L 186.57 137.89   A 0.55 0.34 -31.7 0 1 186.51 138.01   L 184.37 141.78   Q 166.99 131.19 149.55 121.24   Q 134.87 112.87 121.45 102.50   L 126.92 96.00   Z"></path><path fill="#03a7d6" d="   M 121.45 102.50   Q 134.87 112.87 149.55 121.24   Q 166.99 131.19 184.37 141.78   Q 180.75 148.50 174.42 152.88   Q 145.16 135.63 115.42 119.89   Q 115.49 115.97 117.47 110.46   Q 119.26 105.46 121.45 102.50   Z"></path><path fill="#0599e5" d="   M 115.42 119.89   Q 145.16 135.63 174.42 152.88   L 167.19 157.43   A 0.87 0.71 17.0 0 1 166.97 157.52   L 161.55 159.05   Q 140.08 144.05 116.51 133.09   Q 114.69 126.49 115.42 119.89   Z"></path><path fill="#0591ee" d="   M 161.55 159.05   Q 150.05 161.80 139.27 157.91   Q 137.53 157.28 135.23 155.91   C 133.43 154.84 131.94 154.33 130.03 152.84   Q 120.11 145.14 116.51 133.09   Q 140.08 144.05 161.55 159.05   Z"></path><path fill="#01bdbf" d="   M 244.11 162.58   Q 261.37 175.48 280.23 185.66   Q 314.41 204.12 347.55 224.39   Q 359.26 231.55 374.92 236.52   L 374.97 288.00   Q 348.97 273.43 323.17 258.74   Q 309.78 251.12 299.54 239.48   Q 299.63 238.98 299.54 238.60   A 0.74 0.74 0.0 0 0 298.83 238.03   L 288.07 237.97   C 264.01 225.56 236.82 209.61 221.11 200.83   Q 210.40 194.85 197.82 190.41   Q 200.78 179.79 207.28 173.75   Q 212.90 168.53 218.39 165.89   Q 221.38 164.45 226.77 163.28   Q 232.93 161.96 244.11 162.58   Z"></path><path fill="#00c5b6" d="   M 374.92 236.52   Q 359.26 231.55 347.55 224.39   Q 314.41 204.12 280.23 185.66   Q 261.37 175.48 244.11 162.58   Q 278.75 162.35 299.00 162.52   Q 317.41 162.68 334.13 171.27   C 336.43 172.46 338.05 173.99 340.36 174.94   A 4.08 3.91 -13.5 0 1 341.35 175.52   Q 343.81 177.51 346.28 179.48   Q 364.31 193.82 371.31 215.66   Q 374.41 225.31 374.92 236.52   Z"></path><path fill="#02b6c6" d="   M 288.07 237.97   Q 260.87 238.07 233.75 237.80   Q 227.18 237.74 221.03 235.55   Q 217.13 234.16 215.55 232.64   Q 215.39 232.48 215.05 232.53   A 0.76 0.70 55.9 0 1 214.54 232.41   Q 204.22 225.26 199.87 215.66   Q 194.53 203.87 197.82 190.41   Q 210.40 194.85 221.11 200.83   C 236.82 209.61 264.01 225.56 288.07 237.97   Z"></path><path fill="#02b6c6" d="   M 374.97 288.00   L 374.98 315.27   C 351.03 300.09 323.90 284.87 299.52 271.77   L 299.54 239.48   Q 309.78 251.12 323.17 258.74   Q 348.97 273.43 374.97 288.00   Z"></path><path fill="#03a7d6" d="   M 190.45 288.28   Q 182.24 285.21 176.00 282.06   Q 151.87 269.87 126.64 254.47   Q 134.50 247.06 144.73 244.96   Q 157.56 242.31 169.79 248.11   Q 170.79 248.58 171.04 249.08   Q 171.32 249.66 171.97 249.55   A 1.02 1.01 -28.7 0 1 172.81 249.79   Q 174.03 250.90 175.38 251.89   Q 187.06 260.51 189.75 274.25   Q 190.86 279.91 190.45 288.28   Z"></path><path fill="#04a0dd" d="   M 126.64 254.47   Q 151.87 269.87 176.00 282.06   Q 182.24 285.21 190.45 288.28   L 190.47 314.26   Q 174.37 308.90 161.49 301.98   Q 138.69 289.73 115.46 277.41   Q 115.88 272.73 117.69 267.75   Q 117.93 267.10 118.31 266.78   A 0.74 0.73 -27.0 0 0 118.55 266.06   Q 118.41 265.47 119.14 264.84   C 119.96 264.15 120.73 262.03 121.16 261.10   A 2.09 1.86 -15.2 0 1 121.44 260.67   L 126.64 254.47   Z"></path><path fill="#02afcd" d="   M 374.98 315.27   Q 375.02 330.29 375.00 345.25   Q 375.00 347.62 374.57 352.26   Q 363.11 348.15 355.22 343.99   Q 329.44 330.38 299.50 311.76   L 299.52 271.77   C 323.90 284.87 351.03 300.09 374.98 315.27   Z"></path><path fill="#0599e5" d="   M 190.47 314.26   L 190.50 344.46   A 0.81 0.81 0.0 0 0 191.31 345.27   L 248.12 345.28   Q 255.65 355.24 267.22 362.11   Q 314.01 389.92 344.08 407.08   Q 336.91 412.48 330.01 415.50   Q 312.71 423.08 292.99 422.19   Q 273.94 415.72 256.55 405.72   Q 199.26 372.76 141.73 340.20   Q 130.33 333.75 115.04 321.74   Q 114.95 302.53 115.03 283.20   C 115.04 281.36 115.38 279.40 115.46 277.41   Q 138.69 289.73 161.49 301.98   Q 174.37 308.90 190.47 314.26   Z"></path><path fill="#03a7d6" d="   M 374.57 352.26   Q 373.78 361.83 371.08 369.84   Q 367.65 380.07 361.09 389.64   Q 337.58 374.27 313.04 360.42   C 306.19 356.55 298.80 352.35 295.19 345.27   L 298.97 345.23   A 0.51 0.51 0.0 0 0 299.47 344.72   L 299.50 311.76   Q 329.44 330.38 355.22 343.99   Q 363.11 348.15 374.57 352.26   Z"></path><path fill="#0591ee" d="   M 292.99 422.19   Q 242.46 422.33 192.00 422.22   Q 178.50 422.19 165.95 417.82   Q 162.66 416.67 160.53 415.54   C 158.08 414.23 155.81 413.45 153.48 412.09   Q 134.51 400.97 123.85 381.43   Q 121.73 377.54 118.86 369.51   Q 117.16 364.75 116.04 357.95   Q 115.26 353.17 115.11 346.04   Q 114.86 333.93 115.04 321.74   Q 130.33 333.75 141.73 340.20   Q 199.26 372.76 256.55 405.72   Q 273.94 415.72 292.99 422.19   Z"></path><path fill="#04a0dd" d="   M 295.19 345.27   C 298.80 352.35 306.19 356.55 313.04 360.42   Q 337.58 374.27 361.09 389.64   Q 353.81 399.73 344.08 407.08   Q 314.01 389.92 267.22 362.11   Q 255.65 355.24 248.12 345.28   L 295.19 345.27   Z"></path></svg>